<?xml version="1.0" encoding="UTF-8" standalone="no"?><!DOCTYPE svg PUBLIC "-//W3C//DTD SVG 1.1//EN" "http://www.w3.org/Graphics/SVG/1.1/DTD/svg11.dtd"><svg width="100%" height="100%" viewBox="0 0 596 842" version="1.1" xmlns="http://www.w3.org/2000/svg" xmlns:xlink="http://www.w3.org/1999/xlink" xml:space="preserve" xmlns:serif="http://www.serif.com/" style="fill-rule:evenodd;clip-rule:evenodd;stroke-linejoin:round;stroke-miterlimit:2;"><path d="M209.747,442.828c2.029,-17.014 11.758,-29.639 7.235,-32.252c-0.775,-0.447 -5.984,-0.428 -6.505,-0.426c-4.188,0.016 -15.771,0.059 -52.356,-0.038c-50.304,-0.133 -56.244,3.346 -58.574,0.739c-0.139,-0.156 -0.23,-2.804 -0.101,-2.972c0.934,-1.22 1.369,-0.364 37.378,-4.915c3.147,-0.398 36,-5.657 37.797,-6.106c7.558,-1.887 9.744,-10.451 19.251,-15.838c27.391,-15.52 45.766,-3.442 62.278,6.304c6.416,3.787 13.438,5.685 13.725,7.94c0.796,6.254 -16.982,-2.232 -18.149,4.707c-0.026,0.154 2.329,6.082 0.982,11.807c-1.855,7.885 -4.367,10.488 -2.434,12.522c1.951,2.052 2.356,1.103 7.928,0.253c31.976,-4.881 32.561,-5.17 33.504,-7.754c0.545,-1.494 0.483,-1.544 0.514,-138.153c0.005,-22.706 -0.448,-23.644 1.492,-23.976c2.328,-0.398 2.362,-0.253 4.322,1.084c18.284,12.484 71.099,45.233 90.845,125.258c8.26,33.474 4.627,75.362 1.462,77.354c-1.851,1.166 -60.966,0.365 -89.446,0.57c-26.186,0.189 -26.147,0.363 -52.353,0.357c-28.362,-0.006 -35.974,2.024 -38.794,-16.466Zm-1.503,-51.298c-2.924,0.048 -2.875,3.467 -0.285,3.511c3.492,0.059 3.175,-3.559 0.285,-3.511Z" style="fill:#fff;fill-opacity:0.15;"/><path d="M391.717,490.461c-0.655,18.713 0.913,21.114 -5.01,22.194c-9.907,1.807 -51.824,3.044 -82.49,-32.564c-9.407,-10.923 -8.648,-12.332 -8.054,-13.436c0.745,-1.383 1.253,-1.171 42.803,-1.162c48.955,0.011 48.968,-0.063 50.373,0.424c2.549,0.884 2.358,1.765 2.377,24.543Z" style="fill:#fff;fill-opacity:0.15;"/><path d="M399.994,419.099c0.235,-4.097 -0.986,-4.634 1.338,-6.611c2.488,-2.116 17.676,-1.584 23.344,-0.762c6.703,0.971 35.983,5.213 58.147,30.19c6.548,7.38 16.646,17.69 6.059,17.539c-20.049,-0.287 -81.645,-0.022 -85.653,-0.134c-1.305,-0.036 -5.242,0.173 -4.912,-4.545c0.682,-9.76 2.043,-9.68 1.678,-35.676Z" style="fill:#fff;fill-opacity:0.15;"/><path d="M245.122,570.012c9.286,14.791 7.458,15.675 6.88,16.087c-0.705,0.503 -12.42,0.269 -13.725,-0.337c-3.717,-1.725 -7.069,-9.852 -10.415,-15.417c-0.266,-0.442 -2.889,-6.033 -4.498,-6.486c-2.989,-0.842 -2.411,1.028 -9.735,12.951c-4.18,6.806 -4.489,9.252 -11.34,9.436c-2.156,0.058 -9.435,1.002 -9.748,-1.907c-0.295,-2.747 2.519,-5.084 14.145,-24.095c5.744,-9.391 7.716,-10.085 3.596,-16.932c-15.57,-25.876 -18.825,-27.685 -14.845,-29.765c0.642,-0.336 11.01,0.004 11.497,0.135c5.196,1.398 6.976,7.708 10.206,13.181c1.437,2.435 3.543,6.589 4.392,7.121c0.429,0.269 3.24,-0.18 3.51,-0.538c0.758,-1.004 -0.049,-1.448 7.476,-13.834c2.829,-4.656 2.822,-6.346 14.969,-6.26c0.45,0.003 6.037,0.042 3.962,3.988c-1.15,2.186 -1.428,1.988 -16.644,25.996c-3.981,6.281 -1.186,7.78 4.749,17.658c2.731,4.545 2.644,4.52 5.569,9.019Z" style="fill:#fff;fill-opacity:0.15;"/><path d="M397.797,473.834c0.424,-4.026 -1.012,-5.68 3.043,-6.243c0.951,-0.132 41.354,12.917 45.22,13.074c2.344,0.095 2.385,0.054 28.3,-7.671c5.053,-1.506 4.975,-1.576 10.008,-3.101c1.872,-0.567 10.866,-4.778 11.397,1.582c0.683,8.195 -5.842,9.131 -6.896,9.447c-14.058,4.226 -14.211,3.378 -17.058,4.271c-2.019,0.633 -3.533,3.831 0.656,4.774c3.361,0.756 3.359,0.514 6.673,1.255c12.8,2.863 14.501,4.776 15.373,5.757c1.437,1.616 3.25,10.803 -3.249,10.087c-1.496,-0.165 -30.522,-9.153 -33.168,-9.973c-12.923,-4.002 -13.273,-3.004 -26.2,0.945c-2.48,0.758 -30.298,9.256 -31.076,9.219c-4.139,-0.196 -3.213,-7.816 -2.43,-9.687c1.768,-4.222 23.248,-7.684 23.458,-7.816c3.33,-2.078 2.284,-3.891 -1.489,-4.829c-7.706,-1.916 -7.745,-1.601 -17.028,-4.371c-6.374,-1.902 -5.084,-4.993 -5.535,-6.719Z" style="fill:#fff;fill-opacity:0.15;"/><path d="M356.002,560.561c0.644,-38.616 34.616,-30.008 40.743,-25.295c8.623,6.633 9.121,17.578 9.23,18.335c1.555,10.756 -3.192,9.305 -6.165,9.304c-1.903,-0.001 -18.452,-0.008 -23.791,0.115c-9.617,0.222 -2.991,10.48 2.217,12.195c7.353,2.422 13.147,-3.233 13.951,-3.716c1.855,-1.114 11.896,-2.13 12.4,0.916c0.533,3.224 -6.015,14.832 -21.432,14.996c-27.201,0.289 -26.909,-23.284 -27.153,-26.85Zm33.799,-13.972c-10.746,-10.551 -18.384,1.451 -18.166,4.378c0.299,4.004 8.911,2.923 11.515,2.94c6.498,0.042 10.194,0.516 7.728,-5.498c-0.267,-0.652 -0.81,-1.167 -1.078,-1.819Z" style="fill:#fff;fill-opacity:0.15;"/><path d="M334.581,557.374c0.676,-2.486 5.575,-21.31 7.711,-23.415c2.799,-2.758 12.748,-2.325 13.556,0.549c0.053,0.188 -16.052,47.594 -18.005,49.721c-2.549,2.774 -13.094,3.261 -15.581,-0.543c-0.753,-1.152 -12.424,-33.841 -13.467,-37.256c-3.238,-10.602 -4.708,-11.398 -2.904,-13.123c2.024,-1.936 12.807,-1.724 14.319,1.582c0.223,0.487 6.001,18.011 7.433,23.563c0.464,1.798 1.216,4.511 2.044,5.262c0.851,0.772 2.553,0.509 3.123,-0.874c0.579,-1.405 1.358,-3.941 1.772,-5.465Z" style="fill:#fff;fill-opacity:0.15;"/><path d="M426.703,553.584c-3.525,24.218 4.99,33.833 -10.211,32.695c-5.782,-0.433 -5.076,-3.287 -5.037,-18.615c0.01,-3.864 0.972,-5.208 0.466,-14.275c-0.619,-11.1 -1.749,-19.528 2.388,-20.777c5.598,-1.691 11.942,2.503 14.186,2.058c0.35,-0.069 3.153,-2.291 6.91,-3.19c6.883,-1.648 7.707,0.615 7.522,7.645c-0.155,5.876 -1.749,5.596 -7.5,6.692c-7.439,1.417 -8.146,6.632 -8.724,7.768Z" style="fill:#fff;fill-opacity:0.15;"/><g id="Layer1"><path d="M302.971,555.739c0,27.412 0.645,28.682 -3.261,30.308c-0.619,0.258 -6.175,0.236 -6.877,-0.014c-1.648,-0.588 -3.044,-1.806 -4.728,-2.281c-2.736,-0.772 -7.055,4.69 -19.244,3.468c-1.467,-0.147 -10.566,-0.08 -13.714,-12.499c-1.214,-4.79 0.325,-14.766 9.524,-17.906c7.403,-2.526 25.549,-3.37 22.733,-10.442c-1.373,-3.447 -9.993,-7.873 -16.353,-0.37c-0.513,0.605 -1.775,3.443 -9.197,3.834c-8.876,0.468 -4.906,-12.403 4.333,-16.332c14.011,-5.959 29.39,-0.9 32.534,4.24c0.47,0.768 2.714,5.568 3.435,8.493c0.894,3.629 0.78,8.17 0.815,9.501Zm-15.763,13.946c1.278,-4.108 1.356,-4.065 1.38,-4.436c0.255,-3.891 -2.61,-3.887 -3.003,-3.886c-1.663,0.003 -9.114,2.519 -9.893,2.782c-11.103,3.749 -6.28,14.971 2.669,12.612c5.735,-1.512 5.541,-2.111 8.846,-7.071Z" style="fill:#fff;fill-opacity:0.15;"/></g></svg>